<?xml version="1.0" standalone="no"?>
<!DOCTYPE svg PUBLIC "-//W3C//DTD SVG 20010904//EN"
 "http://www.w3.org/TR/2001/REC-SVG-20010904/DTD/svg10.dtd">
<svg version="1.0" xmlns="http://www.w3.org/2000/svg"
 width="400.000000pt" height="400.000000pt" viewBox="0 0 400.000000 400.000000"
 preserveAspectRatio="xMidYMid meet">

<g transform="translate(0.000000,400.000000) scale(0.100000,-0.100000)"
fill="#000000" stroke="none">
<path d="M1840 2991 c-351 -75 -601 -385 -600 -748 1 -159 48 -291 177 -487
113 -174 504 -730 525 -748 23 -20 66 -23 100 -7 13 5 55 56 94 112 38 56 147
212 241 347 301 430 352 525 373 693 12 96 1 226 -26 317 -64 214 -243 408
-452 487 -145 54 -283 65 -432 34z m292 -122 c233 -49 433 -251 484 -489 43
-203 2 -340 -185 -618 -102 -153 -409 -593 -425 -609 -8 -8 -51 46 -176 225
-346 495 -416 607 -445 718 -19 74 -19 220 0 302 53 226 239 412 465 467 68
17 212 19 282 4z"/>
<path d="M1905 2616 c-67 -17 -108 -39 -162 -89 -180 -166 -156 -453 49 -590
147 -98 346 -78 472 49 205 205 110 556 -171 629 -67 18 -119 18 -188 1z m195
-137 c236 -107 178 -453 -80 -476 -99 -9 -182 33 -237 121 -34 53 -43 157 -19
219 20 53 91 124 142 142 58 21 141 18 194 -6z"/>
</g>
</svg>
